<svg width="48" height="48" viewBox="0 0 48 48" fill="none" xmlns="http://www.w3.org/2000/svg">
<rect width="48" height="48" rx="16" fill="url(#paint0_linear_105_272)"/>
<path d="M24 33C28.018 29.7256 28.0891 36.3574 33 31M15.0662 30.3151C15.0755 29.9381 15.0801 29.7497 15.1257 29.5726C15.1661 29.4156 15.2301 29.2658 15.3154 29.1282C15.4117 28.973 15.5444 28.8396 15.8099 28.573L28.8626 15.463C29.3862 14.9371 30.204 14.849 30.8267 15.2513C31.565 15.7283 32.1957 16.3551 32.6785 17.0915L32.7123 17.1431C32.7368 17.1804 32.749 17.199 32.7594 17.2158C33.1427 17.8333 33.0616 18.6329 32.5622 19.16C32.5486 19.1744 32.5329 19.1902 32.5014 19.2218L19.5281 32.2521C19.2527 32.5287 19.115 32.6669 18.9543 32.7658C18.8119 32.8534 18.6565 32.9178 18.4941 32.9568C18.3108 33.0008 18.1161 33.0005 17.7267 32.9999L15 32.9955L15.0662 30.3151Z" stroke="white" stroke-width="2" stroke-linecap="round" stroke-linejoin="round"/>
<defs>
<linearGradient id="paint0_linear_105_272" x1="49.6287" y1="6.59886e-05" x2="49.6287" y2="47.9999" gradientUnits="userSpaceOnUse">
<stop stop-color="#90caf9"/>
<stop offset="0.261236" stop-color="#64b5f6"/>
<stop offset="0.6875" stop-color="#42a5f5"/>
<stop offset="0.848958" stop-color="#2196f3"/>
<stop offset="1" stop-color="#1e88e5"/>
</linearGradient>
</defs>
</svg>
