<svg width="16" height="16" viewBox="0 0 16 16" fill="none" xmlns="http://www.w3.org/2000/svg">
<rect width="16" height="16" rx="8" fill="#B53E31"/>
<path fill-rule="evenodd" clip-rule="evenodd" d="M8.51334 7.68453L11.7035 7.1349L8.04425 11.376L8.51334 7.68453ZM8.04395 7.44359L7.5622 11.3759L4.96246 4.922L8.04395 7.44359ZM8.41155 7.13483L5.34769 4.73767L10.3551 5.60696L8.41155 7.13483ZM10.8403 5.65947L11.8964 6.62932L9.00751 7.13464L10.8403 5.65947ZM10.8806 5.20434L4 4L7.62129 12.6667L12.6667 6.81956L10.8806 5.20434Z" fill="white"/>
<path d="M8.51334 7.68453L8.50485 7.63526L8.4684 7.64154L8.46374 7.67823L8.51334 7.68453ZM11.7035 7.1349L11.7414 7.16756L11.8325 7.06194L11.695 7.08563L11.7035 7.1349ZM8.04425 11.376L7.99465 11.3697L7.97374 11.5343L8.08211 11.4087L8.04425 11.376ZM8.04395 7.44359L8.09357 7.44967L8.09692 7.42234L8.07561 7.40489L8.04395 7.44359ZM7.5622 11.3759L7.51582 11.3946L7.61183 11.382L7.5622 11.3759ZM4.96246 4.922L4.99413 4.8833L4.91608 4.94068L4.96246 4.922ZM8.41155 7.13483L8.38074 7.17421L8.41162 7.19837L8.44245 7.17414L8.41155 7.13483ZM5.34769 4.73767L5.35624 4.6884L5.31688 4.77705L5.34769 4.73767ZM10.3551 5.60696L10.386 5.64626L10.4742 5.57689L10.3636 5.55769L10.3551 5.60696ZM10.8403 5.65947L10.8741 5.62264L10.8424 5.59355L10.8089 5.62052L10.8403 5.65947ZM11.8964 6.62932L11.905 6.67857L12.0049 6.66109L11.9302 6.59249L11.8964 6.62932ZM9.00751 7.13464L8.97616 7.09569L9.01612 7.1839L9.00751 7.13464ZM10.8806 5.20434L10.9141 5.16725L10.9034 5.15757L10.8892 5.15509L10.8806 5.20434ZM4 4L4.00862 3.95075L3.91865 3.935L3.95387 4.01928L4 4ZM7.62129 12.6667L7.57515 12.6859L7.60632 12.7605L7.65914 12.6993L7.62129 12.6667ZM12.6667 6.81956L12.7045 6.85222L12.7364 6.81524L12.7002 6.78247L12.6667 6.81956ZM8.52183 7.7338L11.712 7.18417L11.695 7.08563L8.50485 7.63526L8.52183 7.7338ZM11.6657 7.10224L8.00639 11.3434L8.08211 11.4087L11.7414 7.16756L11.6657 7.10224ZM8.09385 11.3823L8.56294 7.69083L8.46374 7.67823L7.99465 11.3697L8.09385 11.3823ZM7.99432 7.43751L7.51257 11.3698L7.61183 11.382L8.09357 7.44967L7.99432 7.43751ZM7.60858 11.3572L5.00884 4.90332L4.91608 4.94068L7.51582 11.3946L7.60858 11.3572ZM4.9308 4.96069L8.01228 7.48229L8.07561 7.40489L4.99413 4.8833L4.9308 4.96069ZM8.44236 7.09545L5.3785 4.69829L5.31688 4.77705L8.38074 7.17421L8.44236 7.09545ZM5.33913 4.78693L10.3465 5.65622L10.3636 5.55769L5.35624 4.6884L5.33913 4.78693ZM10.3242 5.56765L8.38065 7.09552L8.44245 7.17414L10.386 5.64626L10.3242 5.56765ZM10.8064 5.69629L11.8626 6.66614L11.9302 6.59249L10.8741 5.62264L10.8064 5.69629ZM11.8878 6.58006L8.99889 7.08539L9.01612 7.1839L11.905 6.67857L11.8878 6.58006ZM9.03886 7.17359L10.8716 5.69842L10.8089 5.62052L8.97616 7.09569L9.03886 7.17359ZM10.8892 5.15509L4.00862 3.95075L3.99138 4.04925L10.872 5.25359L10.8892 5.15509ZM3.95387 4.01928L7.57515 12.6859L7.66742 12.6474L4.04613 3.98072L3.95387 4.01928ZM7.65914 12.6993L12.7045 6.85222L12.6288 6.78689L7.58343 12.634L7.65914 12.6993ZM12.7002 6.78247L10.9141 5.16725L10.8471 5.24142L12.6331 6.85664L12.7002 6.78247Z" fill="white"/>
</svg>
